<?xml version="1.0" encoding="utf-8"?>
<svg fill="none" viewBox="0 0 18 18" width="18px" height="18px" xmlns="http://www.w3.org/2000/svg">
  <defs/>
  <g style="" transform="matrix(0.454648, 0, 0, 0.454648, 1.455342, 1.496143)">
    <title>white</title>
    <path d="M 25.395 27.537 L 17.74 32.69 C 17.135 33.101 16.341 33.105 15.732 32.7 L 7.892 27.526 C 4.838 25.513 3 22.1 3 18.442 L 3 5.912 C 3.002 4.271 4.104 2.835 5.688 2.408 L 12.858 0.496 C 15.304 -0.154 17.885 -0.154 20.33 0.496 L 27.5 2.408 C 29.087 2.832 30.19 4.27 30.189 5.912 L 30.189 18.51 C 30.194 22.129 28.396 25.514 25.395 27.537" style="stroke: rgb(255, 255, 255); stroke-width: 2.35661px;">
      <title>shield</title>
    </path>
    <path d="M 22.94 11.055 L 10.248 11.055 C 9.248 11.055 8.434 10.24 8.434 9.24 C 8.434 8.24 9.249 7.425 10.248 7.425 L 22.94 7.425 C 23.94 7.425 24.754 8.24 24.754 9.24 C 24.754 10.25 23.949 11.055 22.94 11.055 M 16.594 14.685 C 16.594 13.685 15.779 12.87 14.78 12.87 L 10.248 12.87 C 9.248 12.87 8.434 13.685 8.434 14.685 C 8.434 15.685 9.249 16.5 10.248 16.5 L 14.78 16.5 C 15.789 16.5 16.594 15.685 16.594 14.685 M 12.063 20.13 C 12.063 19.13 11.248 18.315 10.248 18.315 C 9.248 18.315 8.434 19.13 8.434 20.13 C 8.434 21.13 9.249 21.945 10.248 21.945 C 11.258 21.945 12.063 21.13 12.063 20.13" style="fill: rgb(255, 255, 255);">
      <title>lines</title>
    </path>
  </g>
</svg>